<?xml version="1.0" standalone="no"?>
<!DOCTYPE svg PUBLIC "-//W3C//DTD SVG 20010904//EN"
 "http://www.w3.org/TR/2001/REC-SVG-20010904/DTD/svg10.dtd">
<svg version="1.0" xmlns="http://www.w3.org/2000/svg"
 width="1276.000000pt" height="1109.000000pt" viewBox="0 0 1276.000000 1109.000000"
 preserveAspectRatio="xMidYMid meet">

<g transform="translate(0.000000,1109.000000) scale(0.100000,-0.100000)"
fill="#000000" stroke="none">
<path d="M6120 8760 c-25 -4 -65 -15 -90 -23 -25 -8 -78 -21 -118 -28 -40 -7
-77 -18 -83 -26 -6 -7 -24 -13 -40 -13 -27 0 -87 -27 -119 -55 -8 -7 -37 -20
-63 -30 -26 -10 -69 -33 -95 -51 -26 -19 -51 -34 -55 -34 -5 0 -20 -9 -34 -20
-14 -11 -34 -20 -44 -20 -12 0 -19 -7 -19 -18 0 -10 -18 -31 -40 -48 -23 -16
-47 -44 -55 -61 -8 -20 -21 -33 -32 -33 -30 0 -61 -28 -65 -57 -2 -18 -10 -29
-25 -33 -12 -3 -40 -30 -62 -60 -22 -30 -47 -63 -55 -72 -9 -10 -16 -27 -16
-37 0 -11 -4 -22 -9 -26 -6 -3 -18 -20 -28 -38 -25 -45 -29 -319 -6 -387 9
-25 17 -81 19 -125 3 -86 16 -196 39 -315 14 -73 18 -105 35 -260 12 -114 29
-209 45 -257 25 -73 20 -84 -25 -58 -14 8 -42 14 -64 15 -76 0 -118 -73 -160
-282 -14 -69 -14 -82 0 -120 14 -41 28 -101 40 -178 13 -80 34 -170 50 -210
17 -41 17 -42 29 -20 9 17 14 19 17 9 3 -8 1 -22 -4 -32 -12 -24 41 -100 84
-118 31 -13 109 -17 168 -8 22 4 25 -1 37 -51 45 -184 53 -254 59 -505 2 -110
5 -204 5 -210 1 -5 0 -21 -1 -35 -2 -21 -3 -20 -10 10 -5 19 -6 38 -4 42 3 5
1 8 -5 8 -5 0 -28 -28 -51 -62 -31 -47 -59 -73 -113 -108 -40 -26 -97 -66
-127 -91 -125 -102 -170 -127 -270 -150 -140 -32 -276 -82 -420 -154 -308
-154 -639 -276 -819 -301 -239 -33 -348 -56 -523 -113 -101 -32 -208 -64 -238
-71 -30 -7 -68 -19 -83 -27 -16 -8 -35 -12 -42 -9 -40 15 -146 -47 -175 -103
-32 -65 -75 -341 -67 -433 5 -61 4 -65 -44 -150 -63 -110 -125 -243 -134 -288
-4 -19 -29 -100 -56 -180 -92 -276 -139 -469 -180 -738 -11 -75 -41 -216 -65
-312 -33 -127 -47 -208 -54 -295 -10 -140 -17 -176 -64 -311 -21 -59 -40 -137
-46 -190 -13 -114 -42 -266 -80 -411 -22 -83 -30 -138 -30 -199 0 -60 -6 -99
-20 -136 -11 -29 -20 -54 -20 -55 0 -2 873 -3 1939 -3 l1939 0 7 53 c3 28 15
103 25 166 11 62 19 116 18 120 0 3 0 8 2 11 3 9 8 54 14 145 11 138 26 261
46 364 17 89 18 96 2 107 -14 11 -18 10 -20 -7 -2 -11 -8 -17 -13 -14 -5 4 -9
112 -9 253 0 258 -12 596 -30 842 -14 199 -48 629 -61 780 -6 69 -13 169 -16
223 -6 94 -5 98 16 104 38 10 28 75 -30 193 -48 98 -51 112 -65 234 -17 155
-21 179 -74 451 -64 323 -64 541 -1 701 22 57 41 69 41 26 0 -83 80 -246 175
-357 53 -62 177 -187 181 -182 7 6 -9 47 -16 42 -4 -3 -13 1 -19 9 -9 11 -8
14 6 12 23 -1 42 -18 37 -31 -2 -5 9 -19 26 -30 16 -11 30 -23 30 -27 0 -5 9
-8 20 -8 11 0 20 -4 20 -10 0 -5 -9 -10 -20 -10 -11 0 -20 4 -20 8 0 5 -12 14
-27 21 l-28 11 30 -27 c17 -16 51 -44 75 -63 47 -37 138 -117 155 -137 5 -6
31 -28 56 -50 129 -108 155 -131 188 -166 47 -51 87 -73 142 -80 63 -8 141 30
247 121 46 40 172 138 280 220 205 153 334 267 366 324 l19 33 -24 -20 c-13
-11 -36 -30 -50 -43 -20 -18 -29 -21 -35 -11 -4 7 -3 14 4 17 7 2 12 8 12 13
0 6 -4 8 -8 5 -4 -2 -14 0 -22 5 -13 8 -13 10 -1 18 22 14 32 106 16 138 -8
15 -12 30 -9 35 3 4 0 8 -6 8 -6 0 -9 8 -6 18 6 20 -3 36 -23 40 -72 16 -69
16 -76 -22 -4 -20 -13 -36 -20 -36 -15 0 -26 -45 -13 -58 5 -5 -3 -18 -20 -32
-19 -15 -28 -30 -24 -42 3 -13 -1 -18 -16 -18 -12 0 -25 -6 -29 -13 -8 -14
-69 -47 -86 -47 -5 0 -7 10 -4 22 4 12 1 28 -5 35 -8 10 -6 13 6 13 10 0 15 4
11 10 -3 5 -12 7 -20 3 -11 -4 -13 -1 -9 11 3 9 10 16 15 16 5 0 9 5 9 11 0 7
-10 9 -27 5 l-28 -6 26 22 c22 19 26 29 22 56 -5 28 -2 34 16 39 12 3 20 11
17 18 -3 8 11 17 37 25 22 6 51 18 63 27 19 12 26 12 43 1 17 -11 25 -10 42 0
15 10 24 11 32 3 13 -13 37 -14 37 -2 0 5 -8 12 -17 14 -17 4 -17 5 0 6 18 1
57 35 57 50 0 5 -9 7 -20 4 -39 -10 -31 23 20 77 27 30 50 59 50 65 0 5 -5 4
-12 -3 -7 -7 -16 -12 -20 -12 -4 0 10 19 32 41 42 44 47 58 28 77 -7 7 -8 12
-4 12 5 0 3 7 -4 15 -10 12 -10 19 -2 27 9 9 12 8 12 -6 0 -9 8 -25 17 -34 16
-16 16 -16 10 1 -4 11 0 21 13 29 22 14 27 44 8 51 -10 4 -10 7 0 15 7 5 12
15 10 23 -2 8 7 15 20 17 26 4 28 14 7 32 -11 9 -12 17 -5 30 17 32 12 70 -9
70 -14 0 -17 6 -14 24 4 21 2 24 -19 22 -13 -1 -29 -6 -36 -10 -14 -9 -16 6
-2 20 11 11 2 54 -11 54 -5 0 -9 16 -9 35 0 19 -4 44 -9 57 -5 13 -14 41 -19
63 -14 51 -44 156 -50 174 -4 11 -1 11 16 2 18 -10 22 -9 22 4 0 8 7 15 15 15
8 0 15 7 15 15 0 9 9 15 25 15 16 0 25 6 25 16 0 9 6 14 13 11 6 -2 11 -11 9
-21 -2 -11 4 -16 21 -16 13 0 27 -3 31 -7 4 -4 22 -6 41 -5 18 2 36 -1 40 -7
3 -6 11 -11 16 -11 6 0 7 6 2 13 -4 6 -8 17 -9 22 -1 6 -9 31 -18 58 -10 26
-15 51 -12 56 8 13 -18 62 -30 57 -16 -6 -34 14 -34 37 0 17 -2 18 -16 6 -14
-11 -18 -11 -28 3 -7 9 -24 20 -39 23 -15 4 -31 14 -36 23 -5 8 -25 17 -45 19
-43 4 -77 33 -65 55 10 18 59 12 59 -7 0 -22 38 -25 43 -4 3 11 14 19 26 19
15 0 21 6 21 21 0 16 4 19 20 14 15 -5 23 0 32 21 10 22 10 28 0 32 -21 7 -13
20 9 15 18 -5 20 -2 17 32 -3 33 -7 40 -36 50 -34 11 -65 45 -41 45 7 0 6 8
-4 24 -14 21 -14 25 1 40 15 15 15 16 -6 16 -32 0 -27 24 13 63 19 19 35 41
35 51 0 17 25 22 35 6 6 -10 55 -14 55 -5 0 14 -80 75 -112 84 -91 28 -110 60
-27 46 28 -5 56 -21 90 -51 63 -56 88 -46 57 21 -8 17 -27 31 -60 43 -27 9
-61 26 -75 38 -21 16 -24 24 -15 40 6 10 15 39 21 64 10 40 9 47 -9 62 -25 21
-25 28 0 28 11 0 20 5 20 11 0 5 -4 8 -9 5 -5 -3 -14 1 -21 9 -7 8 -27 17 -46
21 -19 3 -34 12 -34 20 0 16 -17 19 -22 4 -2 -7 -15 -5 -36 5 -17 9 -37 13
-43 9 -32 -20 -241 -58 -269 -49 -12 4 -26 -1 -38 -13 -10 -10 -24 -16 -30
-14 -7 2 -28 -8 -47 -22 -38 -30 -50 -33 -41 -11 4 11 -1 15 -19 15 -14 0 -25
4 -25 10 0 5 -6 7 -14 4 -8 -3 -24 -1 -35 6 -12 6 -21 7 -21 1 0 -15 -30 -22
-49 -11 -12 6 -22 5 -30 -3 -9 -9 -14 -9 -20 2 -6 9 -14 10 -22 5 -8 -5 -18
-9 -24 -10 -5 0 -16 -2 -23 -2 -6 -1 -11 -5 -11 -9 3 -20 -2 -27 -10 -14 -8
12 -12 12 -25 2 -9 -8 -16 -9 -16 -3 0 5 -30 13 -67 16 -38 4 -90 12 -116 18
-40 10 -50 10 -57 -2 -8 -13 -14 -13 -39 2 -17 9 -39 14 -50 11 -12 -3 -41 1
-66 8 -36 11 -45 18 -41 31 2 10 -1 18 -6 18 -7 0 -6 5 1 14 15 18 -35 54 -52
37 -6 -6 -17 -11 -24 -11 -25 0 -13 17 27 36 37 18 48 36 40 69 -19 80 -20 86
-5 109 8 12 12 26 9 29 -4 4 -1 14 7 23 13 16 11 17 -13 12 -21 -4 -27 -1 -31
18 -5 29 2 37 19 23 22 -18 48 6 62 58 8 26 16 54 18 61 2 7 9 11 16 10 9 -2
14 12 16 43 2 37 8 48 31 62 30 17 68 19 88 4 9 -6 15 -4 19 6 9 25 43 32 58
11 15 -20 93 -46 101 -33 7 10 35 1 56 -20 9 -9 26 -24 39 -34 21 -18 22 -18
15 3 -7 21 -6 21 14 3 12 -9 21 -20 21 -24 0 -16 73 -79 91 -79 30 0 36 -30
10 -52 -20 -15 -22 -23 -15 -56 4 -20 8 -44 8 -52 1 -9 12 -14 30 -15 35 0 46
-21 17 -30 -12 -3 -21 -13 -21 -21 0 -8 -10 -18 -22 -23 l-22 -8 21 -11 c11
-6 23 -9 25 -6 3 2 8 -9 11 -26 4 -16 11 -30 17 -30 5 0 9 5 8 11 -2 6 3 14
10 16 6 3 12 -2 12 -10 0 -17 54 -42 69 -33 5 4 12 2 16 -4 4 -6 10 -8 15 -5
5 3 15 -1 23 -9 16 -17 47 -23 63 -14 5 4 28 2 50 -4 50 -13 166 -9 182 6 3 3
10 2 17 -4 7 -6 20 -1 39 16 22 21 27 22 24 9 -2 -10 3 -20 11 -23 10 -3 12 0
7 13 -4 11 -1 22 6 27 10 8 10 11 1 15 -15 6 -17 33 -3 33 6 0 10 7 10 15 0 8
-4 15 -10 15 -5 0 -10 -5 -10 -11 0 -5 -4 -7 -10 -4 -5 3 -7 20 -5 38 3 18 3
26 -1 20 -7 -17 -24 -17 -24 0 0 7 9 18 20 25 24 14 26 32 5 32 -8 0 -15 9
-15 20 0 12 -7 20 -17 20 -13 0 -14 3 -5 12 15 15 16 58 2 58 -6 0 -8 11 -4
27 6 23 5 25 -12 19 -10 -5 -28 -10 -39 -13 -16 -4 -17 -3 -5 6 13 9 13 14 -3
40 -24 41 -23 64 4 56 21 -7 21 -6 5 16 -9 13 -16 42 -16 65 0 34 5 47 26 63
16 13 24 27 20 36 -3 10 8 24 35 42 22 14 38 32 35 39 -3 7 3 19 13 28 22 20
31 20 31 1 0 -17 26 -20 36 -4 3 6 15 9 25 6 10 -3 21 -1 24 3 7 11 48 -10 88
-46 18 -16 44 -37 59 -46 25 -17 58 -69 58 -93 0 -7 9 -20 20 -30 11 -10 20
-22 20 -27 0 -4 9 -17 20 -28 11 -11 20 -27 20 -36 0 -12 7 -15 30 -12 21 3
30 0 30 -9 0 -8 6 -16 14 -19 16 -6 53 -111 42 -121 -4 -4 3 -12 16 -19 22
-12 22 -16 23 -188 0 -97 -3 -176 -7 -176 -10 0 -31 -110 -23 -118 4 -4 10 -1
12 6 3 7 13 21 23 30 17 16 19 36 19 219 0 112 3 208 7 214 10 17 26 144 29
239 2 47 6 119 8 160 3 43 1 80 -5 88 -7 8 -7 16 -1 25 13 16 15 154 3 162 -6
3 -10 14 -10 23 0 9 -14 42 -30 72 -17 30 -40 73 -51 95 -43 87 -72 127 -123
174 -21 20 -49 52 -61 71 -12 19 -35 42 -51 50 -16 8 -33 18 -39 23 -53 40
-73 53 -124 78 -31 16 -64 40 -71 54 -10 19 -21 25 -48 25 -18 0 -46 8 -60 18
-15 10 -43 25 -62 32 -19 7 -44 22 -56 32 -11 10 -33 18 -50 18 -16 0 -60 12
-99 26 -47 17 -97 26 -155 29 -47 2 -141 7 -210 10 -69 3 -145 8 -170 10 -25
2 -65 0 -90 -5z m-279 -1413 c-10 -9 -11 -8 -5 6 3 10 9 15 12 12 3 -3 0 -11
-7 -18z m685 -254 c-10 -10 -19 5 -10 18 6 11 8 11 12 0 2 -7 1 -15 -2 -18z
m-633 -365 c14 -7 17 -16 12 -36 -12 -48 -24 -54 -93 -50 -53 3 -68 8 -84 28
-20 25 -21 65 -1 65 6 0 15 4 20 8 10 11 120 -1 146 -15z m-423 -70 c0 -19 -2
-20 -10 -8 -13 19 -13 30 0 30 6 0 10 -10 10 -22z m998 -20 c6 -13 14 -33 17
-45 9 -33 -5 -113 -20 -113 -15 0 -55 101 -55 140 0 26 6 32 41 39 3 0 11 -9
17 -21z m533 -33 c0 -6 -21 -15 -48 -22 -26 -7 -56 -17 -65 -22 -13 -8 -16 -8
-12 3 3 7 22 21 42 29 67 28 84 31 83 12z m-1146 -15 c-3 -5 -20 -10 -36 -10
-18 0 -28 4 -24 10 3 6 20 10 36 10 18 0 28 -4 24 -10z m776 -47 c1 -21 1 -47
0 -58 -2 -28 50 -88 112 -129 75 -50 153 -125 149 -143 -2 -11 2 -14 12 -10
21 8 20 2 -4 -21 -16 -15 -18 -24 -10 -48 35 -113 38 -153 9 -145 -8 2 -42 9
-76 16 -55 10 -66 10 -90 -5 -53 -32 -81 -33 -99 -5 -20 30 -56 33 -85 6 -16
-15 -30 -18 -58 -14 -20 3 -40 10 -45 14 -14 13 -26 11 -26 -4 0 -9 -18 -12
-72 -9 -80 4 -123 19 -123 42 0 9 11 16 25 18 43 4 100 22 100 32 0 5 10 10
23 12 16 2 21 8 18 23 -8 44 -6 49 24 55 20 4 30 11 29 23 -2 23 13 22 21 -2
4 -13 12 -17 25 -14 12 3 20 0 20 -7 0 -8 9 -11 25 -8 18 4 25 1 25 -11 0 -9
7 -3 15 13 9 16 12 33 8 37 -5 5 -4 70 2 146 7 88 8 149 2 170 -12 39 -4 63
23 63 16 0 20 -7 21 -37z m399 2 c0 -8 -7 -15 -15 -15 -8 0 -15 7 -15 15 0 8
7 15 15 15 8 0 15 -7 15 -15z m-1152 -13 c2 -7 -3 -12 -12 -12 -9 0 -16 7 -16
16 0 17 22 14 28 -4z m1369 -24 c21 -17 2 -38 -50 -53 -28 -8 -52 -13 -55 -10
-3 2 0 17 6 32 5 15 13 36 16 45 4 15 10 16 38 6 18 -6 38 -15 45 -20z m-277
-20 c11 -23 17 -45 12 -50 -8 -8 -102 23 -102 35 0 11 47 57 59 57 6 0 20 -19
31 -42z m-1171 -13 c13 -25 21 -48 18 -52 -8 -8 -97 26 -97 37 0 9 42 60 50
60 3 0 16 -20 29 -45z m459 29 c12 -8 22 -26 22 -38 0 -23 -34 -76 -50 -76
-16 0 -21 35 -6 46 20 14 20 38 1 54 -14 12 -12 30 3 30 4 0 18 -7 30 -16z
m-193 -14 c11 -12 31 -20 52 -20 18 0 33 -4 33 -10 0 -5 -19 -9 -42 -8 -24 0
-62 -5 -85 -13 -23 -7 -45 -11 -48 -8 -3 3 2 22 10 42 18 43 50 50 80 17z
m-924 -30 c37 -19 70 -63 57 -76 -9 -8 -58 7 -58 18 0 6 -11 19 -25 30 -14 11
-25 26 -25 34 0 18 3 18 51 -6z m-155 -32 c-2 -13 -9 -35 -14 -49 -6 -14 -18
-57 -27 -95 -24 -100 -25 -104 -36 -104 -18 0 -9 81 16 142 14 34 25 68 25 76
0 13 27 49 38 51 1 1 0 -9 -2 -21z m108 -14 c30 -30 14 -61 -24 -49 -12 4 -20
15 -20 29 0 38 18 46 44 20z m1097 -4 c30 -16 23 -45 -20 -79 -21 -17 -43 -31
-48 -31 -4 0 -24 -13 -43 -28 -61 -49 -134 -72 -236 -74 -50 -1 -95 2 -101 5
-13 8 -23 66 -12 73 4 2 29 8 54 13 38 7 51 6 66 -7 10 -8 16 -19 13 -24 -3
-4 2 -8 11 -8 9 0 13 5 10 10 -4 6 8 10 27 10 19 0 38 4 44 10 5 5 23 11 39
12 17 1 50 16 75 33 25 17 53 34 64 38 13 5 17 13 12 32 -7 28 10 33 45 15z
m-301 -33 c13 -24 13 -29 0 -37 -37 -24 -84 -4 -95 41 -6 26 -5 27 36 25 36
-1 46 -6 59 -29z m-750 -66 c0 -12 -29 -23 -41 -15 -5 3 -7 10 -4 15 8 12 45
12 45 0z m1344 -17 c3 -8 2 -12 -4 -9 -6 3 -10 10 -10 16 0 14 7 11 14 -7z
m-1421 -70 c-2 -54 -23 -104 -42 -104 -5 0 -19 -20 -31 -45 -38 -79 -53 -30
-25 80 18 66 57 125 84 125 15 0 17 -8 14 -56z m1084 -24 c4 -24 10 -29 24
-25 26 8 24 -6 -7 -67 -23 -45 -26 -61 -21 -113 8 -82 28 -155 44 -155 7 0 13
-3 13 -6 0 -16 -93 -144 -104 -144 -7 0 -23 -11 -36 -25 -20 -22 -21 -25 -6
-25 23 0 17 -29 -8 -44 -28 -17 -66 -55 -67 -69 0 -9 -2 -9 -6 1 -8 19 -23 14
-23 -9 0 -11 5 -17 10 -14 18 11 11 -9 -14 -40 -34 -41 -49 -24 -44 49 1 32
-1 58 -7 60 -6 2 -5 9 3 17 16 18 15 29 -3 29 -8 0 -15 7 -15 15 0 25 -31 65
-49 65 -10 0 -21 3 -25 7 -13 13 -86 31 -86 22 0 -18 -19 -9 -25 12 -6 17 -9
19 -16 8 -8 -13 -9 -12 -9 6 0 3 -15 26 -33 53 -42 60 -63 117 -61 165 1 27
-2 35 -9 28 -18 -18 -27 -12 -26 17 1 31 39 107 54 107 6 1 19 6 30 12 12 6
48 15 82 18 60 7 61 7 79 -23 9 -17 28 -33 41 -37 32 -8 93 4 99 20 3 7 18 11
34 9 20 -2 29 1 27 9 -1 7 7 11 19 9 15 -2 29 7 43 27 19 27 61 57 84 60 4 1
10 -13 14 -29z m-961 -52 c-8 -24 -18 -55 -24 -70 -9 -21 -8 -34 4 -57 8 -17
19 -33 25 -36 16 -10 10 -43 -8 -47 -29 -6 -83 14 -95 35 -5 11 -7 34 -4 51 7
34 91 166 106 166 5 0 3 -19 -4 -42z m47 -146 c5 -84 4 -92 -6 -62 -7 19 -20
49 -30 67 -19 35 -22 74 -8 101 5 9 13 26 17 37 6 17 8 15 14 -13 4 -18 10
-77 13 -130z m33 130 c-2 -4 -1 -14 4 -22 7 -12 10 -12 16 3 3 9 13 17 21 17
12 0 14 -9 9 -47 -9 -70 -9 -82 1 -145 7 -40 6 -59 -1 -61 -8 -3 -8 -8 0 -18
6 -8 13 -24 16 -35 4 -17 2 -20 -12 -17 -18 5 -34 74 -60 250 -12 88 -12 83 1
83 5 0 8 -4 5 -8z m1749 -22 c3 -5 1 -10 -4 -10 -6 0 -11 5 -11 10 0 6 2 10 4
10 3 0 8 -4 11 -10z m-123 -235 l-4 -54 47 -33 c31 -22 53 -48 66 -78 11 -25
24 -54 30 -65 21 -44 29 -88 18 -102 -18 -21 -40 -16 -126 35 -45 26 -96 55
-115 65 -32 18 -32 19 -13 33 11 8 25 12 32 9 7 -3 20 -8 28 -11 11 -5 15 1
15 21 0 21 -4 26 -16 21 -22 -8 -54 11 -54 34 0 12 -8 20 -22 22 -25 3 -61 67
-52 92 6 17 35 26 85 26 23 0 42 7 54 20 10 11 21 20 24 20 3 0 4 -25 3 -55z
m-582 14 c0 -5 -7 -9 -15 -9 -15 0 -20 12 -9 23 8 8 24 -1 24 -14z m102 3 c-1
-7 14 -20 33 -28 41 -17 42 -22 14 -53 -18 -19 -28 -22 -58 -16 -20 4 -41 11
-48 17 -7 5 -17 7 -23 3 -19 -12 -30 5 -18 31 8 18 14 21 20 12 4 -7 8 -8 8
-3 0 6 -4 17 -9 25 -15 23 -2 31 42 28 28 -2 41 -7 39 -16z m-1281 -3 c12 -6
18 -17 15 -27 -3 -9 1 -29 9 -45 8 -16 12 -43 9 -67 -6 -47 4 -50 42 -15 32
30 50 20 33 -18 -11 -23 -17 -26 -58 -25 -25 1 -54 8 -63 16 -12 10 -18 11
-18 4 0 -7 -9 -12 -20 -12 -11 0 -20 7 -20 16 0 8 -4 13 -8 10 -5 -3 -9 1 -9
9 0 8 6 15 14 15 18 0 16 7 -7 30 -29 29 -25 61 12 92 37 31 42 32 69 17z
m2239 -134 c7 -9 11 -18 8 -20 -9 -10 -38 7 -38 21 0 18 14 18 30 -1z m-790
-61 c0 -8 -4 -12 -10 -9 -5 3 -10 10 -10 16 0 5 5 9 10 9 6 0 10 -7 10 -16z
m-1237 -86 c8 -24 22 -79 31 -123 16 -83 43 -179 71 -254 22 -60 15 -70 -19
-26 -20 25 -38 73 -58 149 -27 105 -58 256 -58 284 0 26 18 10 33 -30z m1104
25 c3 -7 -8 -15 -24 -19 -15 -3 -56 -15 -91 -26 -101 -32 -91 -6 15 37 62 25
94 28 100 8z m375 -162 c13 -5 35 -12 50 -15 15 -4 41 -19 59 -36 23 -21 39
-28 55 -24 18 5 29 -3 53 -37 17 -23 31 -48 31 -56 0 -7 8 -16 18 -20 26 -9
52 -34 52 -51 0 -12 -6 -10 -25 8 -14 13 -25 18 -25 12 0 -7 5 -12 10 -12 6 0
10 -7 10 -15 0 -8 -7 -15 -15 -15 -8 0 -15 5 -15 10 0 6 -4 10 -9 10 -4 0 -7
-29 -5 -65 4 -57 2 -65 -13 -66 -12 0 -13 -2 -5 -6 10 -4 8 -9 -7 -20 -21 -14
-30 -40 -10 -28 6 4 16 0 22 -10 10 -13 18 -14 40 -6 25 10 28 9 23 -6 -3 -10
-8 -36 -12 -58 -8 -49 -31 -77 -55 -70 -11 4 -26 -2 -38 -14 -17 -17 -25 -19
-48 -10 -15 5 -41 9 -58 8 -16 -1 -46 5 -65 14 -19 8 -43 18 -53 21 -13 4 -17
12 -12 27 5 16 3 20 -12 19 -33 -4 -43 0 -43 14 0 8 -9 21 -20 29 -13 9 -17
20 -14 34 5 19 12 21 52 17 149 -14 152 -14 163 9 16 28 21 107 7 107 -6 0 -8
10 -4 23 3 12 0 37 -6 55 -11 29 -16 32 -53 32 -30 0 -54 9 -94 36 -46 31 -57
35 -73 25 -27 -17 -54 -5 -68 29 -14 34 -30 39 -30 10 0 -11 -4 -20 -8 -20 -5
0 -21 -10 -35 -23 -34 -28 -127 -36 -147 -12 -7 8 -21 15 -31 15 -24 0 -33 18
-18 36 6 8 9 17 5 21 -3 3 1 15 11 25 15 17 15 18 -3 19 -16 0 -15 2 4 10 13
5 91 11 174 13 82 3 153 7 156 10 9 10 109 7 134 -3z m-508 -85 c-7 -30 -24
-35 -24 -8 0 18 20 45 27 38 2 -2 1 -15 -3 -30z m-256 -68 c1 -14 11 -43 23
-63 18 -31 20 -38 8 -46 -18 -11 -39 -11 -39 0 0 5 -10 11 -23 15 -21 5 -57
52 -57 75 0 6 14 26 31 46 29 33 33 34 43 18 7 -10 13 -30 14 -45z m1052 -148
c0 -11 -4 -20 -10 -20 -5 0 -10 9 -10 20 0 11 5 20 10 20 6 0 10 -9 10 -20z
m-608 -66 l46 -6 4 -47 c5 -56 -16 -93 -49 -88 -15 3 -28 -5 -42 -24 -19 -26
-24 -27 -83 -23 -51 4 -67 10 -85 30 -13 14 -23 20 -23 15 0 -6 -6 -11 -14
-11 -21 0 -30 38 -15 57 11 13 10 17 -6 29 -10 8 -13 14 -7 14 7 0 12 6 12 14
0 7 10 16 23 19 12 3 43 12 68 19 46 13 89 14 171 2z m630 -39 c0 -5 -5 -11
-11 -13 -6 -2 -11 4 -11 13 0 9 5 15 11 13 6 -2 11 -8 11 -13z m18 -239 c0 -2
-7 -7 -16 -10 -8 -3 -12 -2 -9 4 6 10 25 14 25 6z m-60 -122 c0 -8 -4 -12 -10
-9 -5 3 -10 13 -10 21 0 8 5 12 10 9 6 -3 10 -13 10 -21z m-1397 -221 c9 -3
17 -12 17 -19 0 -8 10 -14 21 -14 29 0 110 -41 103 -52 -7 -11 -82 -10 -89 2
-3 6 -15 10 -25 10 -11 0 -24 12 -32 30 -7 17 -16 30 -19 30 -4 0 -15 12 -25
27 l-18 28 25 -18 c13 -10 32 -20 42 -24z m-48 -13 c3 -5 2 -10 -4 -10 -5 0
-13 5 -16 10 -3 6 -2 10 4 10 5 0 13 -4 16 -10z m1215 -200 c0 -5 -9 -10 -20
-10 -11 0 -20 -7 -20 -15 0 -17 -9 -19 -30 -5 -13 8 -11 11 8 16 12 4 22 10
22 15 0 5 9 9 20 9 11 0 20 -4 20 -10z m-1110 -44 c0 -3 -4 -8 -10 -11 -5 -3
-10 -1 -10 4 0 6 5 11 10 11 6 0 10 -2 10 -4z m57 -88 c-3 -8 -6 -5 -6 6 -1
11 2 17 5 13 3 -3 4 -12 1 -19z"/>
<path d="M6763 6128 c-2 -16 6 -27 22 -35 22 -10 25 -9 25 8 0 10 -4 19 -10
19 -5 0 -10 7 -10 15 0 24 -25 17 -27 -7z"/>
<path d="M6070 6310 c0 -5 5 -10 10 -10 6 0 10 5 10 10 0 6 -4 10 -10 10 -5 0
-10 -4 -10 -10z"/>
<path d="M6050 5971 c-11 -23 -27 -41 -35 -41 -8 0 -15 -7 -15 -15 0 -8 0 -18
-1 -22 -2 -18 20 -11 51 17 25 22 33 37 32 61 -1 46 -8 46 -32 0z"/>
<path d="M6912 5189 c2 -7 10 -15 17 -17 8 -3 12 1 9 9 -2 7 -10 15 -17 17 -8
3 -12 -1 -9 -9z"/>
<path d="M6950 5128 c0 -29 15 -45 23 -25 3 7 -1 21 -9 32 -13 18 -14 17 -14
-7z"/>
<path d="M6910 4921 c0 -6 5 -13 10 -16 6 -3 10 1 10 9 0 9 -4 16 -10 16 -5 0
-10 -4 -10 -9z"/>
<path d="M6495 5000 c3 -5 8 -10 11 -10 2 0 4 5 4 10 0 6 -5 10 -11 10 -5 0
-7 -4 -4 -10z"/>
<path d="M6060 7149 c0 -11 36 -17 50 -9 7 5 0 9 -19 12 -17 2 -31 1 -31 -3z"/>
<path d="M6110 7110 c20 -13 33 -13 25 0 -3 6 -14 10 -23 10 -15 0 -15 -2 -2
-10z"/>
<path d="M6210 7071 c0 -5 5 -13 10 -16 6 -3 10 -2 10 4 0 5 -4 13 -10 16 -5
3 -10 2 -10 -4z"/>
<path d="M6105 7060 c4 -6 11 -8 16 -5 14 9 11 15 -7 15 -8 0 -12 -5 -9 -10z"/>
<path d="M6146 7061 c-3 -5 5 -11 19 -13 30 -6 32 -2 6 12 -11 6 -22 6 -25 1z"/>
<path d="M7612 6740 c0 -19 2 -27 5 -17 2 9 2 25 0 35 -3 9 -5 1 -5 -18z"/>
<path d="M7550 6714 c-6 -14 -10 -49 -9 -77 l1 -52 13 53 c7 29 18 59 25 67
12 15 6 35 -11 35 -5 0 -14 -12 -19 -26z"/>
<path d="M7648 6577 c-32 -12 -34 -19 -13 -37 13 -11 20 -10 42 6 44 33 25 53
-29 31z"/>
<path d="M7706 6491 l-29 -31 18 -42 c11 -24 36 -75 56 -114 23 -44 40 -94 44
-128 4 -31 11 -58 14 -61 4 -2 13 18 20 45 14 55 10 89 -28 245 -31 126 -45
138 -95 86z"/>
<path d="M7630 6356 c0 -9 7 -16 16 -16 9 0 14 5 12 12 -6 18 -28 21 -28 4z"/>
<path d="M7603 6294 c-3 -9 2 -70 12 -137 14 -93 16 -143 10 -221 -13 -167
-13 -169 14 -182 21 -11 27 -10 38 4 19 25 16 60 -7 72 -20 11 -28 40 -10 40
5 0 19 18 30 39 15 30 27 40 47 43 19 2 32 12 41 31 12 25 11 40 -12 130 -28
110 -45 140 -96 175 -39 26 -58 28 -67 6z"/>
<path d="M7275 5700 c3 -5 8 -10 11 -10 2 0 4 5 4 10 0 6 -5 10 -11 10 -5 0
-7 -4 -4 -10z"/>
<path d="M7330 5680 c0 -5 5 -10 11 -10 5 0 7 5 4 10 -3 6 -8 10 -11 10 -2 0
-4 -4 -4 -10z"/>
<path d="M7375 5680 c-3 -5 -1 -10 4 -10 6 0 11 5 11 10 0 6 -2 10 -4 10 -3 0
-8 -4 -11 -10z"/>
<path d="M7587 5683 c-4 -3 -7 -19 -7 -35 0 -24 4 -28 28 -28 16 0 37 7 48 15
19 14 19 14 0 15 -11 0 -29 9 -41 20 -12 11 -25 17 -28 13z"/>
<path d="M7709 5663 c-13 -16 -12 -17 4 -4 16 13 21 21 13 21 -2 0 -10 -8 -17
-17z"/>
<path d="M7368 4663 c-3 -21 1 -49 8 -63 72 -144 55 -415 -51 -815 -19 -71
-46 -186 -60 -255 -22 -109 -34 -143 -95 -262 l-69 -137 26 -53 c30 -62 29
-83 -17 -358 -30 -181 -61 -375 -111 -710 -15 -107 -40 -271 -54 -365 -41
-274 -64 -469 -86 -738 -23 -289 -35 -691 -25 -819 l8 -88 1675 0 1676 0 -6
178 -6 177 45 90 c43 86 45 94 48 190 2 62 12 132 26 185 31 118 32 256 2 371
-18 70 -24 134 -32 335 -6 137 -17 285 -25 329 -8 44 -19 107 -25 140 -5 33
-14 76 -20 95 -25 83 -80 314 -99 415 -12 61 -35 144 -52 185 -22 53 -33 101
-39 165 -11 120 -52 321 -75 365 -57 112 -122 166 -185 154 -20 -5 -36 -2 -48
8 -9 8 -54 30 -100 48 -46 18 -120 56 -165 84 -121 76 -221 122 -327 151 -197
54 -246 76 -392 176 -29 19 -84 49 -123 65 -39 16 -182 103 -320 195 -137 92
-295 190 -350 217 -99 50 -262 112 -292 112 -14 0 -87 50 -151 105 -13 11 -37
44 -54 75 -55 96 -55 96 -60 53z"/>
<path d="M6955 4600 c-3 -6 1 -7 9 -4 18 7 21 14 7 14 -6 0 -13 -4 -16 -10z"/>
<path d="M5979 3523 c-97 -71 -259 -216 -259 -232 0 -3 15 -16 33 -29 29 -19
41 -21 93 -16 l59 6 77 -113 c43 -64 83 -137 91 -166 9 -28 21 -61 27 -73 9
-17 8 -27 -7 -53 -43 -72 -104 -218 -123 -293 -11 -43 -29 -173 -40 -289 -33
-341 -176 -1505 -201 -1635 -6 -30 -23 -93 -39 -140 -15 -47 -44 -137 -64
-201 -27 -87 -46 -130 -75 -165 -30 -39 -61 -99 -61 -120 0 -2 180 -4 399 -4
l399 0 7 70 c9 91 22 91 17 0 l-4 -70 53 0 54 0 2 453 c2 248 7 497 13 552 47
450 64 589 85 716 29 168 31 208 7 129 -9 -30 -25 -67 -35 -82 -10 -15 -27
-60 -37 -100 l-19 -73 6 361 c5 306 3 387 -12 535 -21 207 -39 250 -32 74 6
-124 -2 -201 -17 -176 -5 7 -10 32 -11 55 -1 22 -5 49 -9 59 -8 17 -4 99 10
205 7 52 -5 95 -31 114 -6 5 -4 8 4 8 7 0 24 -12 37 -27 l24 -28 0 31 c0 17 7
37 16 44 8 8 22 29 29 48 18 42 60 93 70 84 3 -4 11 1 17 12 9 17 12 16 39
-14 16 -17 29 -35 29 -41 0 -17 19 -9 32 14 14 25 17 129 4 138 -4 4 12 14 37
24 25 9 62 34 82 55 l38 39 -18 28 c-29 45 -206 216 -259 251 -48 31 -51 32
-143 27 -52 -3 -93 -1 -93 4 0 5 -15 5 -37 0 -77 -18 -125 -11 -160 21 -18 17
-34 30 -36 30 -3 0 -33 -21 -68 -47z m425 -1157 c-3 -15 -8 -25 -11 -23 -2 3
-1 17 3 31 3 15 8 25 11 23 2 -3 1 -17 -3 -31z"/>
<path d="M6365 3545 l-40 -13 54 -1 c46 -1 52 1 41 14 -7 8 -13 15 -14 14 0
-1 -19 -7 -41 -14z"/>
</g>
</svg>
